inDegrees=no
num_controls=7
num_derivatives=13
num_iterations=149
num_multipliers=7
num_parameters=0
num_slacks=7
num_states=26
objective=0.469832
objective_accelerations=0.062856
objective_balance=0.002077
objective_effort=0.020044
objective_height=0.375313
objective_ligament=0.009542
solver_duration=2109.589358
status=Solve_Succeeded
success=true
DataType=double
version=3
OpenSimVersion=4.5
endheader
time	/jointset/ground_pelvis/pelvis_tilt/value	/jointset/ground_pelvis/pelvis_tx/value	/jointset/ground_pelvis/pelvis_ty/value	/jointset/hip_l/hip_flexion_l/value	/jointset/hip_l/hip_adduction_l/value	/jointset/hip_l/hip_rotation_l/value	/jointset/back/lumbar_extension/value	/jointset/patellofemoral_l/patellar_flexion_l/value	/jointset/knee_l/knee_flexion_l/value	/jointset/knee_l/knee_adduction_l/value	/jointset/knee_l/knee_rotation_l/value	/jointset/ankle_l/ankle_angle_l/value	/jointset/subtalar_l/subtalar_angle_l/value	/jointset/ground_pelvis/pelvis_tilt/speed	/jointset/ground_pelvis/pelvis_tx/speed	/jointset/ground_pelvis/pelvis_ty/speed	/jointset/hip_l/hip_flexion_l/speed	/jointset/hip_l/hip_adduction_l/speed	/jointset/hip_l/hip_rotation_l/speed	/jointset/back/lumbar_extension/speed	/jointset/patellofemoral_l/patellar_flexion_l/speed	/jointset/knee_l/knee_flexion_l/speed	/jointset/knee_l/knee_adduction_l/speed	/jointset/knee_l/knee_rotation_l/speed	/jointset/ankle_l/ankle_angle_l/speed	/jointset/subtalar_l/subtalar_angle_l/speed	/forceset/tau_hip_flexion_l	/forceset/tau_hip_adduction_l	/forceset/tau_hip_rotation_l	/forceset/tau_knee_flexion_l	/forceset/tau_ankle_angle_l	/forceset/tau_subtalar_angle_l	/forceset/tau_lumbar_extension	lambda_cid13_p0	lambda_cid13_p1	lambda_cid13_p2	lambda_cid13_p3	lambda_cid13_p4	lambda_cid13_p5	lambda_cid14_p0	/jointset/ground_pelvis/pelvis_tilt/accel	/jointset/ground_pelvis/pelvis_tx/accel	/jointset/ground_pelvis/pelvis_ty/accel	/jointset/hip_l/hip_flexion_l/accel	/jointset/hip_l/hip_adduction_l/accel	/jointset/hip_l/hip_rotation_l/accel	/jointset/back/lumbar_extension/accel	/jointset/patellofemoral_l/patellar_flexion_l/accel	/jointset/knee_l/knee_flexion_l/accel	/jointset/knee_l/knee_adduction_l/accel	/jointset/knee_l/knee_rotation_l/accel	/jointset/ankle_l/ankle_angle_l/accel	/jointset/subtalar_l/subtalar_angle_l/accel	gamma_cid13_p0	gamma_cid13_p1	gamma_cid13_p2	gamma_cid13_p3	gamma_cid13_p4	gamma_cid13_p5	gamma_cid14_p0
0.5	-0.4102958642425393	-0.0644393744464082	0.7769169388398918	1.178667812265827	-0.3517461230387344	-0.06642835074821972	-0.4078888702510768	0.7122361593037247	0.712236159303724	-0.05094820756034597	-0.1745328016587076	0.04930270694059695	0.08425015081860213	-1.296332979627334	-0.3997002222200047	-0.4975247176780032	2.864238464992211	0.04026921449346342	0.432379615669823	-0.2844538627501311	1.342150971859261	1.342150971859259	0.2066684599054349	5.235040913287152e-05	-0.1260130879350639	-0.001014506709387821	-0.1649934191872578	-0.006385781902785377	0.004929127558413827	-0.1448090505073956	0.09172968737452419	0.01818323659192952	0.1499441932555518	5.327104837314082	-8.052473180808628	0.1149747679889198	-7.888002708668582	-435.7480140298105	-74.49753688819835	-14.67463371460732	0.5162051479196186	0.6903017559892243	-0.3768931495460708	-1.709128414741026	0.09983322580983756	-0.3698348801234201	1.586622040028174	-1.074171036754842	-1.07417103675483	-0.4391903990717979	0.07266835446831743	-0.01071737954889976	0.1044631680921291	1.298143361607916e-08	-1.333202335420075e-06	-7.009128787354786e-07	-2.929727867606548e-07	-2.119713049950141e-07	1.826995282184462e-07	-1.495984398545386e-07
0.51	-0.4232308051432881	-0.0684012611420539	0.7719241207987902	1.207219498593514	-0.3513391942615031	-0.06212735671777321	-0.4106551115752901	0.7256017159825113	0.7256017159825126	-0.04890278547439837	-0.1745324010599696	0.04804206623117557	0.08424449262645829	-1.290492880496939	-0.392624947034128	-0.500920738742709	2.845704604746639	0.04111041208600171	0.4277478738127475	-0.2687921779022919	1.330754578768564	1.330754578768563	0.2024240631432212	1.328520466072024e-05	-0.1260976625267097	-0.0001177010989354539	-0.171596802794678	-0.00596322465315857	0.00444588953921065	-0.1454486059331387	0.09389161618150216	0.01911360926074546	0.1545505490371364	5.886489586502166	-8.397155612891517	-0.009773456785947373	-8.420891653274815	-439.3686896997166	-74.81412775156849	-14.12807452061422	0.6422395594822635	0.7239040567299481	-0.3032692167004913	-1.984665676402731	0.07567045209868124	-0.5206303465920662	1.556275335693875	-1.203213978851523	-1.203213978851337	-0.4161572636122495	-0.04446949382321143	-0.00477470971120691	0.08251882696339975	-6.600399829752963e-09	-1.139297750228785e-06	-4.486289398462583e-07	-2.499249896395062e-07	-2.28820941901526e-07	2.28078531328913e-07	-1.559769154221781e-07
0.52	-0.4361024795999565	-0.07229084235447222	0.7669008800206879	1.235574016149359	-0.3509239720231218	-0.05787483740751598	-0.4132646693253185	0.7388471406236659	0.7388471406236694	-0.04689962594583588	-0.1745328462204588	0.04678109033368995	0.0842478484043073	-1.283679690811232	-0.3852391255745281	-0.5036092650781218	2.824804710623571	0.0419279067234543	0.4226846716319735	-0.2531171479131694	1.318124564332895	1.318124564332896	0.1982159484283639	-0.0001168014365407087	-0.1260801255479072	0.0007882872891812458	-0.1782001864020982	-0.005540667403531908	0.003962651520008314	-0.1460881613588821	0.09605354498848001	0.0200439819295612	0.159156904818721	6.444930902190209	-8.741266753456797	-0.1350771374785436	-8.951317530514	-443.0037325827093	-75.14258086752122	-13.58526416508953	0.7108232589819108	0.7524110107338987	-0.2353942036874463	-2.182335190240218	0.09509263479269832	-0.4561269448631312	1.589291068284816	-1.320895305748883	-1.320895305748885	-0.4319339896005059	0.05446406712245897	0.009704934540754532	0.1062997236249948	-7.457280588016342e-08	-6.86353484821121e-07	3.316065540026927e-07	-1.303227725921429e-07	-3.335031325232209e-07	3.519542744722961e-07	-1.959768411737789e-07
0.53	-0.4489011237223302	-0.07610516699661102	0.7618543002755778	1.263707791864574	-0.3505013205847139	-0.05367171046060771	-0.4157175637692849	0.7519600710366782	0.7519600710366793	-0.04494138822915476	-0.1745328838360091	0.04552049440293842	0.08425951677189668	-1.275885556648687	-0.3775901211632585	-0.5055869781431547	2.801575460427892	0.0426016997657984	0.4178370142402984	-0.2374717445156951	1.304264318524708	1.304264318524709	0.1934704657187902	6.890459133145917e-05	-0.1260318983770113	0.001548014961091758	-0.1850474394822303	-0.00506938276198615	0.003432027521234195	-0.1462225331264274	0.09733044009377818	0.02100741163301849	0.1638399721901715	6.712938396747092	-9.074450671541911	-0.2329168277041366	-9.170651559714708	-446.6807230990034	-75.40558637783157	-13.04633207439708	0.8382144676512323	0.7764839095393566	-0.161081685343662	-2.449503344987364	0.05343086832265333	-0.5148262945098355	1.550664430141771	-1.448125782704575	-1.448125782704482	-0.4901080802922844	-0.005262945108715256	0.003439903825345222	0.06118719227905178	-1.196182390022889e-07	-3.535969304528524e-07	8.721866177919546e-07	-4.34096766421855e-08	-3.937414629191478e-07	4.404921818930367e-07	-2.195458885555314e-07
0.54	-0.4616169253085264	-0.07984193384399395	0.756791519034331	1.291598018395681	-0.3500719495700093	-0.04952020831925415	-0.418014304288344	0.7649284916787387	0.7649284916787369	-0.04302945587330122	-0.1745322417544267	0.04426059240298812	0.08427885799686617	-1.267111183575724	-0.3697275666233538	-0.5068495643054862	2.776094873801987	0.04327182198283801	0.4123597105210181	-0.2218863629316996	1.289222610142484	1.289222610142486	0.1889548762629571	1.91379900711238e-05	-0.1259413393876619	0.002322858765201141	-0.1918946925623622	-0.004598098120440272	0.002901403522457839	-0.1463569048939728	0.09860733519907632	0.02197084133647594	0.1685230395616221	6.980653472398211	-9.408255898605834	-0.3298891494042592	-9.402501445816739	-450.3689060281529	-75.7155909888106	-12.51157162139117	0.906871041065432	0.7951210364609214	-0.09236882314714999	-2.63260247628524	0.09435846973180043	-0.5820562103841742	1.577286705589055	-1.557187820556249	-1.557187820556249	-0.3859553388523748	0.00736954129595526	0.01817129823143667	0.1093229500647681	-1.392976595229075e-07	-1.538140138302993e-07	1.147615993004537e-06	7.336732136173505e-09	-4.048078628525225e-07	4.899329093653215e-07	-2.249360917834089e-07
